<?xml version="1.0" standalone="yes"?>

<svg version="1.1" viewBox="0.0 0.0 960.0 720.0" fill="none" stroke="none" stroke-linecap="square" stroke-miterlimit="10" xmlns="http://www.w3.org/2000/svg" xmlns:xlink="http://www.w3.org/1999/xlink"><clipPath id="p.0"><path d="m0 0l960.0 0l0 720.0l-960.0 0l0 -720.0z" clip-rule="nonzero"></path></clipPath><g clip-path="url(#p.0)"><path fill="#000000" fill-opacity="0.0" d="m0 0l960.0 0l0 720.0l-960.0 0z" fill-rule="evenodd"></path><path fill="#000000" fill-opacity="0.0" d="m12.934383 34.490814l899.65356 0l0 587.77954l-899.65356 0z" fill-rule="evenodd"></path><path fill="#ff9900" d="m83.52813 354.69394q-19.46875 0 -31.328121 -10.0q-11.859375 -10.0 -11.859375 -26.265625q0 -10.140625 4.796875 -18.671875q4.796875 -8.53125 13.0625 -13.453125q8.265621 -4.9375 18.124996 -4.9375q10.140625 0 16.40625 5.0625q6.265625 5.0625 6.265625 13.328125q0 6.40625 -2.9375 10.140625q-2.390625 -3.203125 -6.53125 -5.078125q-4.125 -1.859375 -8.65625 -1.859375q-8.0 0 -13.078125 5.328125q-5.062496 5.328125 -5.062496 13.875q0 8.53125 4.937496 13.859375q4.9375 5.328125 12.390625 5.328125q9.34375 0 16.0 -8.265625q6.671875 -8.265625 10.140625 -24.53125l13.328125 -58.921875l-1.0625 0q-7.203125 10.125 -17.46875 15.46875q-10.265625 5.328125 -22.53125 5.328125q-15.468746 0 -27.203121 -8.265625q-11.734375 -8.265625 -18.0 -23.59375q-6.265625 -15.34375 -6.265625 -35.609375q0 -29.328125 12.796875 -53.453125q12.8125 -24.140625 35.20312 -38.0q22.40625 -13.875 49.328125 -13.875q22.671883 0 35.859383 9.875q13.203125 9.859375 13.203125 26.921875q0 11.46875 -5.59375 18.40625q-5.59375 6.921875 -14.671875 6.921875q-5.0625 0 -9.46875 -2.125q-4.390625 -2.140625 -7.328125 -6.140625q4.796875 -3.1875 8.125 -10.25q3.34375 -7.078125 3.34375 -14.28125q0 -8.0 -4.671875 -12.390625q-4.65625 -4.40625 -13.1875 -4.40625q-15.468758 0 -29.875008 13.734375q-14.390625 13.734375 -23.203125 35.875q-8.796875 22.125 -8.796875 46.390625q0 20.0 6.40625 30.53125q6.40625 10.53125 18.40625 10.53125q14.390625 0 25.453125 -15.1875q11.078133 -15.203125 17.734383 -44.28125l31.46875 0.265625l-19.46875 89.609375q-8.53125 39.71875 -24.140633 58.390625q-15.59375 18.671875 -40.390625 18.671875zm137.06476 -202.9375q-8.796875 0 -14.9375 -6.125q-6.125 -6.140625 -6.125 -14.9375q0 -8.796875 6.125 -15.0625q6.140625 -6.265625 14.9375 -6.265625q8.796875 0 15.0625 6.265625q6.265625 6.265625 6.265625 15.0625q0 8.796875 -6.265625 14.9375q-6.265625 6.125 -15.0625 6.125zm-18.125 149.32812q-12.8125 0 -20.6875 -8.0q-7.859375 -8.0 -7.859375 -24.0q0 -6.65625 2.140625 -17.328125l18.125 -85.59375l38.40625 0l-19.203125 90.65625q-1.0625 4.0 -1.0625 8.546875q0 5.328125 2.53125 7.59375q2.53125 2.265625 8.40625 2.265625q7.734375 0 14.390625 -6.53125q6.671875 -6.53125 9.609375 -16.9375l11.1875 0q-9.859375 28.796875 -25.328125 39.0625q-15.46875 10.265625 -30.65625 10.265625zm91.99408 65.0625q-12.796875 0 -21.34375 -6.671875q-8.5312805 -6.65625 -8.5312805 -19.1875q0 -15.203125 12.2656555 -24.40625q12.265625 -9.1875 31.203125 -15.328125l3.203125 -14.125q-13.609375 14.65625 -32.0 14.65625q-15.2031555 0 -25.343765 -10.390625q-10.125 -10.40625 -10.125 -32.53125q0 -19.734375 7.859375 -41.46875q7.8749847 -21.734375 23.468765 -36.796875q15.609375 -15.0625 37.203125 -15.0625q10.9375 0 16.265625 3.734375q5.328125 3.734375 5.328125 9.859375l0 1.59375l2.9375 -13.859375l38.40625 0l-26.40625 123.734375q12.796875 -4.265625 20.53125 -12.796875q7.734375 -8.546875 13.0625 -25.34375l11.203125 0q-7.203125 23.734375 -19.46875 34.8125q-12.265625 11.0625 -27.71875 15.0625l-4.0 19.1875q-5.34375 25.875 -18.40625 35.59375q-13.0625 9.734375 -29.59375 9.734375zm2.125 -90.921875q6.140625 0 12.53125 -5.59375q6.40625 -5.609375 8.796875 -15.203125l13.609375 -63.203125q0 -3.203125 -2.671875 -6.53125q-2.65625 -3.328125 -8.265625 -3.328125q-10.65625 0 -19.203125 12.40625q-8.53125 12.390625 -13.328125 29.859375q-4.796875 17.46875 -4.796875 30.796875q0 13.328125 3.859375 17.0625q3.875 3.734375 9.46875 3.734375zm-8.265625 70.125q4.53125 0 8.796875 -6.140625q4.265625 -6.125 6.671875 -17.59375l1.59375 -7.71875q-26.125 9.59375 -26.125 22.65625q0 3.46875 2.390625 6.125q2.40625 2.671875 6.671875 2.671875zm137.60089 -182.92188q-8.265625 0 -13.46875 -5.1875q-5.203125 -5.203125 -5.203125 -13.484375q0 -10.390625 8.65625 -22.78125q8.671875 -12.40625 23.078125 -22.015625l4.0 4.0q-5.59375 5.875 -8.796875 10.9375q-3.203125 5.0625 -3.203125 8.265625q0 1.875 1.203125 3.46875q1.203125 1.59375 3.59375 3.46875q3.734375 2.9375 5.859375 6.140625q2.140625 3.1875 2.140625 8.515625q0 8.28125 -5.0625 13.484375q-5.0625 5.1875 -12.796875 5.1875zm50.38739 138.65625q-19.71875 0 -30.65625 -10.265625q-10.9375 -10.265625 -10.9375 -32.125q0 -18.40625 7.203125 -40.53125q7.203125 -22.140625 23.46875 -38.265625q16.265625 -16.140625 41.328125 -16.140625q29.328125 0 29.328125 25.609375q0 14.921875 -8.53125 27.46875q-8.53125 12.53125 -22.671875 20.125q-14.125 7.59375 -30.125 8.671875q-0.53125 8.0 -0.53125 10.65625q0 13.078125 4.53125 17.75q4.53125 4.65625 14.671875 4.65625q14.390625 0 24.65625 -6.65625q10.265625 -6.671875 22.53125 -20.28125l9.078125 0q-29.609375 49.328125 -73.34375 49.328125zm0.546875 -68.25q9.859375 -0.546875 18.78125 -6.9375q8.9375 -6.40625 14.40625 -16.265625q5.46875 -9.875 5.46875 -20.796875q0 -10.9375 -6.671875 -10.9375q-9.59375 0 -18.796875 16.796875q-9.1875 16.796875 -13.1875 38.140625zm225.84912 68.25q-16.265625 0 -23.875 -8.65625q-7.59375 -8.671875 -7.59375 -21.46875q0 -5.59375 1.328125 -12.65625q1.34375 -7.078125 2.8125 -13.734375q1.46875 -6.671875 2.0 -8.546875q2.125 -9.328125 3.984375 -18.390625q1.875 -9.078125 1.875 -14.671875q0 -13.59375 -9.59375 -13.59375q-6.9375 0 -12.265625 6.796875q-5.328125 6.796875 -8.53125 17.734375l-18.140625 85.59375l-38.390625 0l19.46875 -92.0q0.796875 -3.203125 0.796875 -6.65625q0 -11.734375 -8.0 -11.734375q-7.46875 0 -12.9375 6.796875q-5.46875 6.796875 -8.671875 18.0l-18.125 85.59375l-38.40625 0l28.265625 -133.32812l38.40625 0l-2.9375 13.859375q13.609375 -15.1875 32.53125 -15.1875q23.46875 0 27.46875 22.921875q14.671875 -22.65625 37.0625 -22.65625q13.609375 0 21.609375 7.46875q8.0 7.453125 8.0 22.65625q0 7.734375 -1.875 17.203125q-1.859375 9.46875 -5.328125 23.0625q-2.140625 8.265625 -3.875 16.140625q-1.734375 7.859375 -1.734375 12.390625q0 5.34375 2.40625 8.28125q2.40625 2.921875 8.265625 2.921875q8.0 0 12.796875 -5.734375q4.796875 -5.734375 9.609375 -17.734375l11.1875 0q-9.859375 29.328125 -22.796875 39.328125q-12.921875 10.0 -26.796875 10.0z" fill-rule="nonzero"></path></g></svg>

