<?xml version="1.0" encoding="utf-8"?>
<!-- Generator: Adobe Illustrator 16.0.0, SVG Export Plug-In . SVG Version: 6.00 Build 0)  -->
<!DOCTYPE svg PUBLIC "-//W3C//DTD SVG 1.1//EN" "http://www.w3.org/Graphics/SVG/1.1/DTD/svg11.dtd">
<svg version="1.1" id="Layer_1" xmlns="http://www.w3.org/2000/svg" xmlns:xlink="http://www.w3.org/1999/xlink" x="0px" y="0px"
	 width="466px" height="175.666px" viewBox="88.5 257.167 466 175.666" enable-background="new 88.5 257.167 466 175.666"
	 xml:space="preserve">
<g>
	<defs>
		<rect id="SVGID_1_" x="74" y="197.5" width="612" height="459"/>
	</defs>
	<clipPath id="SVGID_2_">
		<use xlink:href="#SVGID_1_"  overflow="visible"/>
	</clipPath>
	<g clip-path="url(#SVGID_2_)">
		<path fill-opacity="0" d="M88.5,257.167h462.667v175.666H88.5V257.167z"/>
		<path fill-opacity="0" d="M94.733,265.582h433.583v143.406H94.733V265.582z"/>
		<path fill="#FF9900" d="M127.249,423.617c-8.274,0-14.931-2.125-19.972-6.375c-5.04-4.25-7.56-9.831-7.56-16.744
			c0-4.31,1.019-8.277,3.058-11.903c2.039-3.626,4.814-6.484,8.327-8.576c3.513-2.099,7.364-3.148,11.555-3.148
			c4.31,0,7.796,1.076,10.459,3.228c2.663,2.151,3.994,4.984,3.994,8.497c0,2.723-0.624,4.877-1.873,6.465
			c-1.016-1.361-2.404-2.44-4.164-3.237c-1.753-0.791-3.593-1.186-5.519-1.186c-3.4,0-6.179,1.132-8.337,3.396
			c-2.152,2.265-3.228,5.213-3.228,8.846c0,3.625,1.049,6.57,3.147,8.835c2.099,2.265,4.731,3.397,7.899,3.397
			c3.971,0,7.371-1.757,10.2-5.27c2.835-3.514,4.991-8.727,6.465-15.639l8.497-37.562h-0.677c-3.062,4.303-6.773,7.59-11.136,9.861
			c-4.363,2.264-9.151,3.396-14.364,3.396c-6.574,0-12.355-1.756-17.342-5.269c-4.987-3.513-8.812-8.527-11.475-15.041
			c-2.663-6.521-3.995-14.088-3.995-22.701c0-12.464,2.719-23.823,8.158-34.076c5.445-10.26,12.926-18.335,22.442-24.225
			c9.522-5.897,20.005-8.845,31.447-8.845c9.635,0,17.255,2.098,22.86,6.295c5.611,4.19,8.417,9.911,8.417,17.163
			c0,4.874-1.189,8.785-3.566,11.734c-2.377,2.942-5.495,4.413-9.354,4.413c-2.151,0-4.164-0.452-6.036-1.354
			c-1.866-0.91-3.423-2.215-4.672-3.915c2.039-1.354,3.765-3.533,5.18-6.534c1.421-3.008,2.132-6.043,2.132-9.104
			c0-3.4-0.993-6.033-2.979-7.899c-1.979-1.873-4.781-2.809-8.407-2.809c-6.574,0-12.922,2.919-19.045,8.756
			c-6.116,5.837-11.047,13.46-14.792,22.87c-3.739,9.403-5.608,19.261-5.608,29.574c0,8.5,1.361,14.988,4.084,19.464
			c2.723,4.476,6.634,6.713,11.734,6.713c6.116,0,11.524-3.227,16.226-9.682c4.708-6.461,8.477-15.871,11.306-28.229l20.062,0.169
			l-12.412,57.126c-3.625,16.88-8.755,29.288-15.39,37.224C146.371,419.649,137.788,423.617,127.249,423.617z M214.628,294.245
			c-3.739,0-6.913-1.301-9.522-3.905c-2.604-2.609-3.905-5.784-3.905-9.522s1.301-6.939,3.905-9.603
			c2.609-2.663,5.784-3.994,9.522-3.994s6.939,1.332,9.603,3.994c2.663,2.663,3.994,5.864,3.994,9.603s-1.332,6.913-3.994,9.522
			C221.567,292.943,218.367,294.245,214.628,294.245z M203.073,389.441c-5.445,0-9.841-1.7-13.188-5.1c-3.34-3.4-5.01-8.5-5.01-15.3
			c0-2.829,0.455-6.511,1.365-11.047l11.555-54.566h24.484l-12.242,57.793c-0.452,1.7-0.678,3.516-0.678,5.449
			c0,2.264,0.538,3.878,1.614,4.841s2.862,1.444,5.359,1.444c3.287,0,6.345-1.388,9.174-4.164c2.835-2.776,4.877-6.375,6.126-10.798
			h7.132c-4.19,12.239-9.572,20.54-16.146,24.902S209.528,389.441,203.073,389.441z M261.72,430.919
			c-5.439,0-9.975-1.418-13.607-4.253c-3.625-2.83-5.438-6.906-5.438-12.232c0-6.461,2.606-11.648,7.819-15.559
			c5.213-3.905,11.843-7.163,19.892-9.772l2.042-9.004c-5.784,6.229-12.584,9.343-20.4,9.343c-6.461,0-11.847-2.208-16.156-6.624
			c-4.303-4.423-6.455-11.335-6.455-20.739c0-8.387,1.67-17.199,5.011-26.436c3.347-9.237,8.334-17.057,14.961-23.458
			c6.634-6.402,14.54-9.603,23.717-9.603c4.648,0,8.105,0.793,10.369,2.381c2.265,1.587,3.397,3.682,3.397,6.285v1.016l1.873-8.835
			h24.484l-16.834,78.881c5.438-1.813,9.802-4.532,13.089-8.158c3.287-3.632,6.062-9.018,8.327-16.157h7.142
			c-3.061,10.087-7.198,17.485-12.411,22.193c-5.213,4.702-11.103,7.902-17.67,9.603l-2.55,12.231
			c-2.271,10.998-6.182,18.561-11.734,22.691C275.034,428.851,268.745,430.919,261.72,430.919z M263.074,372.956
			c2.61,0,5.272-1.188,7.989-3.566c2.723-2.384,4.592-5.615,5.608-9.692l8.676-40.292c0-1.361-0.567-2.75-1.703-4.164
			c-1.129-1.414-2.885-2.122-5.27-2.122c-4.529,0-8.609,2.636-12.242,7.909c-3.626,5.266-6.458,11.611-8.497,19.035
			c-2.039,7.424-3.058,13.969-3.058,19.633c0,5.664,0.82,9.29,2.46,10.877C258.685,372.163,260.697,372.956,263.074,372.956z
			 M257.805,417.66c1.926,0,3.795-1.305,5.608-3.914c1.812-2.604,3.23-6.342,4.253-11.216l1.016-4.921
			c-11.103,4.077-16.655,8.892-16.655,14.443c0,1.475,0.508,2.775,1.524,3.904C254.574,417.093,255.992,417.66,257.805,417.66z
			 M345.525,301.048c-3.513,0-6.375-1.102-8.586-3.307c-2.212-2.211-3.317-5.077-3.317-8.597c0-4.416,1.839-9.257,5.519-14.523
			c3.686-5.272,8.59-9.951,14.712-14.035l2.55,2.55c-2.377,2.497-4.246,4.821-5.607,6.973s-2.042,3.908-2.042,5.27
			c0,0.797,0.255,1.534,0.767,2.211c0.512,0.678,1.275,1.415,2.291,2.211c1.588,1.249,2.832,2.553,3.735,3.915
			c0.91,1.355,1.364,3.165,1.364,5.429c0,3.52-1.075,6.385-3.227,8.597C351.531,299.946,348.812,301.048,345.525,301.048z
			 M377.647,389.441c-8.38,0-14.896-2.182-19.544-6.544s-6.973-11.189-6.973-20.479c0-7.823,1.531-16.436,4.592-25.839
			c3.062-9.41,8.049-17.541,14.962-24.394c6.913-6.86,15.695-10.29,26.347-10.29c12.465,0,18.697,5.442,18.697,16.326
			c0,6.342-1.813,12.179-5.439,17.511c-3.625,5.326-8.443,9.603-14.453,12.83c-6.003,3.228-12.404,5.07-19.205,5.528
			c-0.225,3.4-0.338,5.665-0.338,6.793c0,5.558,0.963,9.33,2.889,11.316c1.926,1.979,5.043,2.968,9.354,2.968
			c6.115,0,11.355-1.415,15.718-4.244c4.363-2.835,9.151-7.145,14.364-12.929h5.787C411.82,378.959,396.234,389.441,377.647,389.441
			z M377.996,345.932c4.19-0.232,8.182-1.707,11.973-4.423c3.799-2.723,6.86-6.179,9.185-10.369
			c2.324-4.197,3.486-8.616,3.486-13.258c0-4.648-1.418-6.973-4.254-6.973c-4.077,0-8.071,3.569-11.982,10.708
			C382.498,328.756,379.696,336.861,377.996,345.932z M521.975,389.441c-6.913,0-11.986-1.839-15.22-5.519
			c-3.228-3.686-4.842-8.248-4.842-13.686c0-2.377,0.282-5.067,0.847-8.068c0.571-3.008,1.169-5.927,1.793-8.756
			c0.625-2.835,1.05-4.652,1.275-5.449c0.903-3.964,1.75-7.872,2.54-11.724c0.797-3.858,1.195-6.976,1.195-9.354
			c0-5.777-2.039-8.666-6.116-8.666c-2.948,0-5.555,1.444-7.819,4.333s-4.077,6.657-5.438,11.306l-11.564,54.566H454.15
			l12.412-58.65c0.338-1.361,0.508-2.776,0.508-4.243c0-4.987-1.7-7.481-5.101-7.481c-3.174,0-5.923,1.444-8.247,4.333
			s-4.167,6.714-5.528,11.475l-11.555,54.566h-24.484l18.02-84.997h24.484l-1.873,8.835c5.784-6.455,12.697-9.682,20.738-9.682
			c9.975,0,15.812,4.871,17.512,14.613c6.235-9.629,14.111-14.443,23.627-14.443c5.784,0,10.376,1.587,13.776,4.761
			c3.4,3.167,5.1,7.982,5.1,14.443c0,3.287-0.398,6.943-1.195,10.967c-0.79,4.024-1.922,8.925-3.396,14.703
			c-0.909,3.513-1.733,6.943-2.47,10.29c-0.737,3.34-1.106,5.973-1.106,7.899c0,2.271,0.512,4.031,1.534,5.279
			c1.022,1.242,2.779,1.863,5.27,1.863c3.4,0,6.119-1.219,8.158-3.656c2.038-2.437,4.08-6.206,6.126-11.306h7.132
			c-4.19,12.464-9.034,20.822-14.533,25.072C533.566,387.316,527.872,389.441,521.975,389.441z"/>
	</g>
</g>
</svg>
