<?xml version="1.0" encoding="utf-8"?>
<!-- Generator: Adobe Illustrator 21.0.0, SVG Export Plug-In . SVG Version: 6.00 Build 0)  -->
<svg version="1.1" baseProfile="basic" id="Layer_1"
	 xmlns="http://www.w3.org/2000/svg" xmlns:xlink="http://www.w3.org/1999/xlink" x="0px" y="0px" viewBox="0 0 64 64"
	 xml:space="preserve">
<style type="text/css">
	.st0{fill:#007BB5;}
</style>
<path class="st0" d="M56.6,0H7.4C3.3,0,0,3.3,0,7.4v49.2C0,60.7,3.3,64,7.4,64h49.2c4.1,0,7.4-3.3,7.4-7.4V7.4C64,3.3,60.7,0,56.6,0
	z M19.1,54.4H9.6V24h9.5V54.4z M14.3,19.8c-3,0-5.5-2.5-5.5-5.5s2.5-5.5,5.5-5.5s5.5,2.5,5.5,5.5S17.3,19.8,14.3,19.8z M54.6,54.4
	h-9.5V39.6c0-3.5-0.1-8.1-4.9-8.1c-4.9,0-5.7,3.9-5.7,7.8v15.1H25V24h9.1v4.2h0.1c1.3-2.4,4.4-4.9,9-4.9c9.6,0,11.4,6.3,11.4,14.5
	V54.4z"/>
</svg>
